<svg xmlns="http://www.w3.org/2000/svg" viewBox="0 0 66 52.5" version="1.1"
     x="0px" y="0px">
    <g stroke="none" stroke-width="1" fill="none" fill-rule="evenodd">
        <g transform="translate(-176.000000, -787.000000)" fill="#000000" fill-rule="nonzero">
            <path d="M184,821 L181,821 C178.790861,821 177,819.209139 177,817 L177,814 C177,813.447715 177.447715,813 178,813 C178.552285,813 179,813.447715 179,814 L179,817 C179,818.104569 179.895431,819 181,819 L184,819 L184,806 C184,805.447715 184.447715,805 185,805 C185.552285,805 186,805.447715 186,806 L186,814 L189,814 C190.104569,814 191,813.104569 191,812 L191,809 C191,808.447715 191.447715,808 192,808 C192.552285,808 193,808.447715 193,809 L193,812 C193,814.209139 191.209139,816 189,816 L186,816 L186,827 L196.307,827 L199.063671,819.648877 C199.210035,819.258573 199.583155,819 200,819 L207.540065,819 L213.240743,812.349209 C213.430726,812.127563 213.708075,812 214,812 L230,812 C230.388525,812 230.741882,812.22504 230.906183,812.577115 L237.636863,827 L241,827 C241.552285,827 242,827.447715 242,828 C242,828.552285 241.552285,829 241,829 L177,829 C176.447715,829 176,828.552285 176,828 C176,827.447715 176.447715,827 177,827 L184,827 L184,821 Z M229.363137,814 L214.459935,814 L210.174221,819 L216,819 C216.552285,819 217,819.447715 217,820 C217,820.552285 216.552285,821 216,821 L200.693,821 L198.443,827 L235.429804,827 L229.363137,814 Z M203,801 C199.134007,801 196,797.865993 196,794 C196,790.134007 199.134007,787 203,787 C206.865993,787 210,790.134007 210,794 C210,797.865993 206.865993,801 203,801 Z M203,799 C205.761424,799 208,796.761424 208,794 C208,791.238576 205.761424,789 203,789 C200.238576,789 198,791.238576 198,794 C198,796.761424 200.238576,799 203,799 Z"/>
        </g>
    </g>
</svg>